<?xml version="1.0" standalone="no"?><!DOCTYPE svg PUBLIC "-//W3C//DTD SVG 1.1//EN" "http://www.w3.org/Graphics/SVG/1.1/DTD/svg11.dtd"><svg t="1572327023894" class="icon" viewBox="0 0 1139 1024" version="1.1" xmlns="http://www.w3.org/2000/svg" p-id="2969" xmlns:xlink="http://www.w3.org/1999/xlink" width="222.4609375" height="200"><defs><style type="text/css"></style></defs><path d="M371.083153 332.130285c-15.03333 78.988709-29.950031 144.611034-44.743441 196.871972 26.007177 21.001343 50.705623 41.287091 74.095338 60.85058 32.450033-66.57784 51.902724-152.485079 58.34558-257.722552L371.083153 332.130285z" p-id="2970" fill="#515151"></path><path d="M608.403329 555.490108l236.246367 0 0 173.246502-236.246367 0 0-173.246502Z" p-id="2971" fill="#515151"></path><path d="M1095.186306 351.667949l-110.695655-191.334649c-57.400061-99.213644-163.47892-160.333301-278.279043-160.333301L484.82113 0c-114.79929 0-220.878148 61.119657-278.27821 160.333301L95.847264 351.667116c-57.399228 99.213644-57.399228 221.452124 0 320.665768l110.695655 191.332982c57.400061 99.216143 163.47892 160.333301 278.27821 160.333301l221.390478 0c114.800123 0 220.878982-61.116324 278.279043-160.333301l110.695655-191.332149C1152.586367 573.120073 1152.586367 450.881593 1095.186306 351.667949zM488.848123 754.509699c-26.013841-26.488683-52.026017-52.260105-78.033194-77.317599-35.319078 51.069668-81.377914 99.269459-138.168178 144.611034-10.022497-14.799241-21.001343-30.308245-32.931539-46.532845 54.642646-40.330743 98.55303-85.426566 131.725323-135.304131-34.127807-31.975191-68.250616-62.758278-102.373426-92.350928 16.941028-64.190301 32.332572-136.02056 46.175464-215.484944l-73.37891 0L241.863664 278.437324l82.685812 0c7.634126-48.19979 14.91087-99.028705 21.834399-152.485912l57.987366 8.591307c-7.874879 51.785264-15.749758 99.750132-23.624637 143.895438l133.156513 0 0 52.976534c-11.219599 127.910759-35.078324 226.105575-71.590338 294.591113 32.450866 28.40138 62.043516 55.482366 88.772119 81.253788L488.848123 754.509699zM899.058253 827.530394l-54.408557 0 0-50.112487-236.246367 0 0 50.828915-54.40939 0L553.993939 505.377621l345.063481 0L899.05742 827.530394zM896.909801 470.298463c-10.022497-22.909042-20.403209-45.576497-31.142134-68.010696-75.409067 4.53599-165.494916 11.695274-270.250882 21.477018-13.367217 1.432023-30.308245 5.492339-50.828915 12.170116l-26.488683-51.54451c16.701108-10.022497 31.018009-23.383883 42.954036-40.090823 38.658799-57.747446 77.792441-131.960244 117.407588-222.644227l60.135817 19.3294c-43.43471 83.044026-86.622835 158.453926-129.576871 226.223869 95.449064-5.962182 173.006582-10.379878 232.666725-13.243925-19.3294-37.942371-39.615148-75.286608-60.851413-112.037709l46.532845-22.909042c48.681297 76.841924 90.678985 151.770317 125.998062 224.791846L896.909801 470.298463z" p-id="2972" fill="#515151"></path></svg>